<?xml version="1.0" encoding="UTF-8" standalone="no"?>
<svg
   version="1.1"
   width="76.557999"
   height="76.557999"
   style="clip-rule:evenodd;fill-rule:evenodd;image-rendering:optimizeQuality;shape-rendering:geometricPrecision;text-rendering:geometricPrecision"
   id="svg41"
   sodipodi:docname="modernisumLogo.svg"
   inkscape:version="1.4 (86a8ad7, 2024-10-11)"
   inkscape:export-filename="C:\Users\ok\Downloads\modernisumLogo2.svg"
   inkscape:export-xdpi="1.2539562"
   inkscape:export-ydpi="1.2539562"
   xmlns:inkscape="http://www.inkscape.org/namespaces/inkscape"
   xmlns:sodipodi="http://sodipodi.sourceforge.net/DTD/sodipodi-0.dtd"
   xmlns:xlink="http://www.w3.org/1999/xlink"
   xmlns="http://www.w3.org/2000/svg"
   xmlns:svg="http://www.w3.org/2000/svg">
  <defs
     id="defs41">
    <linearGradient
       id="swatch131"
       inkscape:swatch="solid">
      <stop
         style="stop-color:#ffffff;stop-opacity:1;"
         offset="0"
         id="stop131" />
    </linearGradient>
    <linearGradient
       id="swatch51"
       inkscape:swatch="solid">
      <stop
         style="stop-color:#000000;stop-opacity:1;"
         offset="0"
         id="stop51" />
    </linearGradient>
    <linearGradient
       id="swatch50"
       inkscape:swatch="solid">
      <stop
         style="stop-color:#fbfbfb;stop-opacity:1;"
         offset="0"
         id="stop50" />
    </linearGradient>
    <linearGradient
       id="swatch49"
       inkscape:swatch="solid">
      <stop
         style="stop-color:#000000;stop-opacity:1;"
         offset="0"
         id="stop49" />
    </linearGradient>
    <linearGradient
       id="swatch48"
       inkscape:swatch="solid">
      <stop
         style="stop-color:#000000;stop-opacity:1;"
         offset="0"
         id="stop48" />
    </linearGradient>
    <linearGradient
       id="swatch47"
       inkscape:swatch="solid">
      <stop
         style="stop-color:#000000;stop-opacity:1;"
         offset="0"
         id="stop47" />
    </linearGradient>
    <linearGradient
       id="swatch46"
       inkscape:swatch="solid">
      <stop
         style="stop-color:#000000;stop-opacity:1;"
         offset="0"
         id="stop46" />
    </linearGradient>
    <linearGradient
       id="swatch45"
       inkscape:swatch="solid">
      <stop
         style="stop-color:#f4ad1c;stop-opacity:1;"
         offset="0"
         id="stop45" />
    </linearGradient>
    <linearGradient
       id="swatch44"
       inkscape:swatch="solid">
      <stop
         style="stop-color:#f4ad1c;stop-opacity:1;"
         offset="0"
         id="stop44" />
    </linearGradient>
    <linearGradient
       id="swatch43"
       inkscape:swatch="solid">
      <stop
         style="stop-color:#f4ad1c;stop-opacity:1;"
         offset="0"
         id="stop43" />
    </linearGradient>
    <linearGradient
       id="swatch42"
       inkscape:swatch="solid">
      <stop
         style="stop-color:#f4ad1c;stop-opacity:1;"
         offset="0"
         id="stop42" />
    </linearGradient>
    <linearGradient
       id="swatch6"
       inkscape:swatch="solid">
      <stop
         style="stop-color:#313f46;stop-opacity:1;"
         offset="0"
         id="stop6" />
    </linearGradient>
    <linearGradient
       id="swatch5"
       inkscape:swatch="solid">
      <stop
         style="stop-color:#5e5e5e;stop-opacity:1;"
         offset="0"
         id="stop5" />
    </linearGradient>
    <linearGradient
       id="swatch4"
       inkscape:swatch="solid">
      <stop
         style="stop-color:#313f46;stop-opacity:1;"
         offset="0"
         id="stop4" />
    </linearGradient>
    <linearGradient
       id="swatch3"
       inkscape:swatch="solid">
      <stop
         style="stop-color:#5e5e5e;stop-opacity:1;"
         offset="0"
         id="stop3" />
    </linearGradient>
    <linearGradient
       id="swatch2"
       inkscape:swatch="solid">
      <stop
         style="stop-color:#5e5e5e;stop-opacity:1;"
         offset="0"
         id="stop2" />
    </linearGradient>
    <linearGradient
       id="swatch1"
       inkscape:swatch="solid">
      <stop
         style="stop-color:#5e5e5e;stop-opacity:1;"
         offset="0"
         id="stop1" />
    </linearGradient>
    <linearGradient
       inkscape:collect="always"
       xlink:href="#swatch4"
       id="linearGradient1"
       x1="186.37495"
       y1="216.00012"
       x2="304.5"
       y2="216.00012"
       gradientUnits="userSpaceOnUse" />
    <linearGradient
       inkscape:collect="always"
       xlink:href="#swatch4"
       id="linearGradient2"
       x1="291.5"
       y1="195.25711"
       x2="317.48297"
       y2="195.25711"
       gradientUnits="userSpaceOnUse" />
    <linearGradient
       inkscape:collect="always"
       xlink:href="#swatch4"
       id="linearGradient3"
       x1="187.5"
       y1="149.15813"
       x2="309.5"
       y2="149.15813"
       gradientUnits="userSpaceOnUse" />
    <linearGradient
       inkscape:collect="always"
       xlink:href="#swatch42"
       id="linearGradient42"
       x1="198.5"
       y1="170"
       x2="232.5"
       y2="170"
       gradientUnits="userSpaceOnUse" />
    <linearGradient
       inkscape:collect="always"
       xlink:href="#swatch43"
       id="linearGradient43"
       x1="212.43732"
       y1="150.60907"
       x2="297.5"
       y2="150.60907"
       gradientUnits="userSpaceOnUse" />
    <linearGradient
       inkscape:collect="always"
       xlink:href="#swatch44"
       id="linearGradient44"
       x1="196.9576"
       y1="209.5"
       x2="235.5"
       y2="209.5"
       gradientUnits="userSpaceOnUse" />
    <linearGradient
       inkscape:collect="always"
       xlink:href="#swatch45"
       id="linearGradient45"
       x1="232.37849"
       y1="192.5"
       x2="271.62149"
       y2="192.5"
       gradientUnits="userSpaceOnUse" />
    <linearGradient
       inkscape:collect="always"
       xlink:href="#swatch45"
       id="linearGradient46"
       x1="240.5"
       y1="228"
       x2="262.5"
       y2="228"
       gradientUnits="userSpaceOnUse" />
    <linearGradient
       inkscape:collect="always"
       xlink:href="#swatch45"
       id="linearGradient47"
       x1="267.5"
       y1="209.5"
       x2="306.5"
       y2="209.5"
       gradientUnits="userSpaceOnUse" />
    <linearGradient
       inkscape:collect="always"
       xlink:href="#swatch4"
       id="linearGradient5"
       gradientUnits="userSpaceOnUse"
       x1="187.5"
       y1="149.15813"
       x2="309.5"
       y2="149.15813" />
    <linearGradient
       inkscape:collect="always"
       xlink:href="#swatch43"
       id="linearGradient7"
       gradientUnits="userSpaceOnUse"
       x1="212.43732"
       y1="150.60907"
       x2="297.5"
       y2="150.60907" />
    <linearGradient
       inkscape:collect="always"
       xlink:href="#swatch42"
       id="linearGradient8"
       gradientUnits="userSpaceOnUse"
       x1="198.5"
       y1="170"
       x2="232.5"
       y2="170" />
    <linearGradient
       inkscape:collect="always"
       xlink:href="#swatch45"
       id="linearGradient9"
       gradientUnits="userSpaceOnUse"
       x1="285.43793"
       y1="177.53258"
       x2="306.50665"
       y2="177.53258"
       gradientTransform="matrix(1.8009163,0,0,1.5707085,-210.48369,-60.118887)" />
    <linearGradient
       inkscape:collect="always"
       xlink:href="#swatch45"
       id="linearGradient11"
       gradientUnits="userSpaceOnUse"
       x1="232.37849"
       y1="192.5"
       x2="271.62149"
       y2="192.5" />
    <linearGradient
       inkscape:collect="always"
       xlink:href="#swatch45"
       id="linearGradient12"
       gradientUnits="userSpaceOnUse"
       x1="240.5"
       y1="228"
       x2="262.5"
       y2="228" />
    <linearGradient
       inkscape:collect="always"
       xlink:href="#swatch45"
       id="linearGradient13"
       gradientUnits="userSpaceOnUse"
       x1="267.5"
       y1="209.5"
       x2="306.5"
       y2="209.5" />
    <linearGradient
       inkscape:collect="always"
       xlink:href="#swatch44"
       id="linearGradient14"
       gradientUnits="userSpaceOnUse"
       x1="196.9576"
       y1="209.5"
       x2="235.5"
       y2="209.5" />
    <linearGradient
       inkscape:collect="always"
       xlink:href="#swatch4"
       id="linearGradient15"
       gradientUnits="userSpaceOnUse"
       x1="186.37495"
       y1="216.00012"
       x2="304.5"
       y2="216.00012" />
    <linearGradient
       inkscape:collect="always"
       xlink:href="#swatch4"
       id="linearGradient16"
       gradientUnits="userSpaceOnUse"
       x1="186.37495"
       y1="216.00012"
       x2="304.5"
       y2="216.00012" />
  </defs>
  <sodipodi:namedview
     id="namedview41"
     pagecolor="#ffffff"
     bordercolor="#000000"
     borderopacity="0.25"
     inkscape:showpageshadow="2"
     inkscape:pageopacity="0.0"
     inkscape:pagecheckerboard="0"
     inkscape:deskcolor="#d1d1d1"
     inkscape:zoom="1.4142136"
     inkscape:cx="135.05739"
     inkscape:cy="232.28458"
     inkscape:window-width="1920"
     inkscape:window-height="991"
     inkscape:window-x="-9"
     inkscape:window-y="-9"
     inkscape:window-maximized="1"
     inkscape:current-layer="g35"
     showgrid="false"
     inkscape:export-bgcolor="#ffffff00">
    <inkscape:page
       x="0"
       y="0"
       width="76.557999"
       height="76.557999"
       id="page1"
       margin="0"
       bleed="0" />
  </sodipodi:namedview>
  <g
     id="g35"
     transform="matrix(0.02799299,0,0,0.02670971,-1.1195335,5.1226077)">
    <g
       id="g1"
       transform="matrix(3.5241101,0,0,4.672323,570.267,29.014075)">
      <g
         id="g10"
         transform="matrix(1.8009163,0,0,1.5707085,-210.48369,-60.118887)"
         style="fill:url(#linearGradient3)">
        <path
           style="opacity:1;fill:url(#linearGradient5)"
           fill="#4b5860"
           d="m 309.5,156.5 c -2.338,-0.666 -4.505,-0.666 -6.5,0 -1.352,2.094 -1.852,4.427 -1.5,7 -1.333,-1.667 -2.667,-3.333 -4,-5 -14.923,-20.279 -34.923,-28.112 -60,-23.5 -10.011,2.662 -18.344,7.828 -25,15.5 -6.971,6.933 -11.638,15.266 -14,25 -0.333,0 -0.667,0 -1,0 0.149,-1.052 -0.017,-2.052 -0.5,-3 -3.289,-1.897 -4.289,-4.563 -3,-8 -1.392,2.778 -1.892,5.778 -1.5,9 -1.822,0.331 -3.489,0.998 -5,2 7.496,-29.327 26.163,-46.827 56,-52.5 28.775,-1.781 50.775,9.386 66,33.5 z"
           id="path10" />
      </g>
      <g
         id="g11"
         transform="matrix(1.8009163,0,0,1.5707085,-210.48369,-60.118887)"
         style="mix-blend-mode:normal;fill:url(#linearGradient43)">
        <path
           style="opacity:1;fill:url(#linearGradient7)"
           fill="#f5b90b"
           d="m 297.5,158.5 c -0.719,2.264 -1.052,4.597 -1,7 -2.292,0.256 -4.459,-0.077 -6.5,-1 -0.249,1.124 -0.749,2.124 -1.5,3 0.204,-1.029 -0.296,-2.029 -1.5,-3 -0.232,1.237 -0.732,2.237 -1.5,3 0.284,-1.915 -0.049,-3.581 -1,-5 0.172,-0.992 -0.162,-1.658 -1,-2 -6.071,-7.569 -12.571,-7.902 -19.5,-1 -1.026,2.739 -2.526,5.072 -4.5,7 -5.14,-0.988 -10.474,-1.321 -16,-1 -1.476,-2.269 -2.976,-4.602 -4.5,-7 -1.972,-1.732 -4.139,-3.065 -6.5,-4 -3.165,-0.822 -6.498,-1.489 -10,-2 -0.667,0.333 -1.333,0.667 -2,1 0.928,1.268 1.095,2.601 0.5,4 -2.166,-1.621 -4.666,-2.455 -7.5,-2.5 -0.88,-1.356 -1.214,-2.856 -1,-4.5 6.656,-7.672 14.989,-12.838 25,-15.5 25.077,-4.612 45.077,3.221 60,23.5 z"
           id="path11" />
      </g>
      <g
         id="g15"
         transform="matrix(1.8009163,0,0,1.5707085,-210.48369,-60.118887)"
         style="fill:url(#linearGradient42)">
        <path
           style="opacity:1;fill:url(#linearGradient8)"
           fill="#ebac08"
           d="m 212.5,150.5 c -0.214,1.644 0.12,3.144 1,4.5 2.834,0.045 5.334,0.879 7.5,2.5 0.595,-1.399 0.428,-2.732 -0.5,-4 0.667,-0.333 1.333,-0.667 2,-1 3.502,0.511 6.835,1.178 10,2 -6.75,-0.997 -11.083,1.67 -13,8 -0.667,6.512 -1.333,13.179 -2,20 -3.333,2.333 -6.667,4.667 -10,7 -2.515,-1.262 -5.515,-1.928 -9,-2 0,-4 0,-8 0,-12 2.362,-9.734 7.029,-18.067 14,-25 z"
           id="path15" />
      </g>
      <path
         style="opacity:1;mix-blend-mode:hard-light;fill:url(#linearGradient9);stroke-width:1.68188"
         fill="#eeb007"
         d="m 325.28891,188.83841 c 2.40062,2.61837 4.80304,5.23517 7.20366,7.85354 6.23117,13.03531 9.2315,26.64864 9.00459,40.83842 -1.74329,3.30949 -2.3448,6.97552 -1.80092,10.99496 -2.11608,0.34399 -3.91699,-0.17906 -5.40275,-1.57071 -8.49312,-8.71114 -18.39816,-16.04007 -29.71512,-21.98991 -0.89866,-7.31165 -1.19941,-14.64058 -0.90046,-21.98992 1.38311,-1.19845 2.28357,-2.76916 2.70138,-4.71213 2.1683,1.52516 3.06876,3.09587 2.70137,4.71213 1.35249,-1.37594 2.25295,-2.94665 2.70138,-4.71213 3.67567,1.44977 7.57825,1.97281 11.70595,1.57071 -0.0936,-3.77441 0.50606,-7.43888 1.80092,-10.99496 z"
         id="path16" />
      <g
         id="g21"
         transform="matrix(1.8009163,0,0,1.5707085,-210.48369,-60.118887)"
         style="fill:url(#linearGradient45)">
        <path
           style="opacity:1;fill:url(#linearGradient11)"
           fill="#dda00f"
           d="m 270.5,174.5 c 0.994,9.819 1.327,19.819 1,30 -3.503,-0.371 -6.503,0.629 -9,3 -0.489,-2.967 -1.655,-5.633 -3.5,-8 -1.255,0.711 -2.421,1.544 -3.5,2.5 -0.335,1.164 -0.335,2.497 0,4 -2.922,0.292 -4.922,1.792 -6,4.5 -3.259,-0.236 -6.259,-1.569 -9,-4 -2.612,-0.871 -5.279,-1.537 -8,-2 -0.327,-9.848 0.006,-19.514 1,-29 4.154,7.64 8.321,15.306 12.5,23 4.877,3.021 9.21,2.354 13,-2 3.749,-7.444 7.583,-14.777 11.5,-22 z"
           id="path21" />
      </g>
      <g
         id="g26"
         transform="matrix(1.8009163,0,0,1.5707085,-210.48369,-60.118887)"
         style="fill:url(#linearGradient46)">
        <path
           style="opacity:1;fill:url(#linearGradient12)"
           fill="#d5950d"
           d="m 262.5,207.5 c -2.731,1.571 -4.565,3.905 -5.5,7 -0.5,13.996 -0.667,27.996 -0.5,42 -3.333,0 -6.667,0 -10,0 0.167,-14.004 0,-28.004 -0.5,-42 -1.273,-3.097 -3.107,-5.764 -5.5,-8 2.741,2.431 5.741,3.764 9,4 1.078,-2.708 3.078,-4.208 6,-4.5 -0.335,-1.503 -0.335,-2.836 0,-4 1.079,-0.956 2.245,-1.789 3.5,-2.5 1.845,2.367 3.011,5.033 3.5,8 z"
           id="path26" />
      </g>
      <g
         id="g27"
         transform="matrix(1.8009163,0,0,1.5707085,-210.48369,-60.118887)"
         style="fill:url(#linearGradient47)">
        <path
           style="opacity:1;fill:url(#linearGradient13)"
           fill="#d9990a"
           d="m 284.5,162.5 c 0.951,1.419 1.284,3.085 1,5 -0.166,4.679 10e-4,9.345 0.5,14 6.284,3.788 11.784,8.454 16.5,14 0.825,0.886 1.825,1.219 3,1 -0.302,-2.559 0.032,-4.893 1,-7 -0.544,13.65 -5.544,25.316 -15,35 -11.481,7.628 -16.481,18.295 -15,32 -3,0 -6,0 -9,0 0,-11 0,-22 0,-33 5.757,1.052 10.424,-0.615 14,-5 1.058,-1.1 1.892,-2.434 2.5,-4 0.5,-17.33 0.667,-34.663 0.5,-52 z"
           id="path27"
           sodipodi:insensitive="true" />
      </g>
      <g
         id="g30"
         transform="matrix(1.8009163,0,0,1.5707085,-210.48369,-60.118887)"
         style="fill:url(#linearGradient44)">
        <path
           style="opacity:1;fill:url(#linearGradient14)"
           fill="#d9990e"
           d="m 219.5,162.5 c -0.167,17.337 0,34.67 0.5,52 2.679,7.257 7.846,10.257 15.5,9 0,11 0,22 0,33 -2.667,0 -5.333,0 -8,0 1.531,-9.066 -0.636,-17.066 -6.5,-24 -18.436,-14.44 -26.269,-33.44 -23.5,-57 0.333,0 0.667,0 1,0 0,4 0,8 0,12 3.485,0.072 6.485,0.738 9,2 3.333,-2.333 6.667,-4.667 10,-7 0.667,-6.821 1.333,-13.488 2,-20 z"
           id="path30" />
      </g>
      <g
         id="g32"
         transform="matrix(1.8009163,0,0,1.5707085,-210.48369,-60.118887)"
         style="fill:url(#linearGradient1);fill-rule:nonzero">
        <path
           style="opacity:1;fill:url(#linearGradient15);fill-rule:nonzero"
           fill="#38434a"
           d="m 197.5,175.5 c -2.769,23.56 5.064,42.56 23.5,57 5.864,6.934 8.031,14.934 6.5,24 2.667,0 5.333,0 8,0 0,-11 0,-22 0,-33 0.803,-3.669 -0.364,-6.336 -3.5,-8 -0.499,-3.652 -0.665,-7.318 -0.5,-11 0.333,0 0.667,0 1,0 2.721,0.463 5.388,1.129 8,2 2.393,2.236 4.227,4.903 5.5,8 0.5,13.996 0.667,27.996 0.5,42 3.333,0 6.667,0 10,0 -0.167,-14.004 0,-28.004 0.5,-42 0.935,-3.095 2.769,-5.429 5.5,-7 2.497,-2.371 5.497,-3.371 9,-3 0.324,4.055 -0.009,8.055 -1,12 -2.593,1.571 -3.593,3.904 -3,7 0,11 0,22 0,33 3,0 6,0 9,0 -1.481,-13.705 3.519,-24.372 15,-32 0.996,-0.086 1.829,0.248 2.5,1 0.419,-1.172 1.085,-2.172 2,-3 2.81,-0.424 5.644,0.076 8.5,1.5 -1.59,1.046 -3.09,2.213 -4.5,3.5 -0.69,2.696 -2.19,4.863 -4.5,6.5 0.228,0.399 0.562,0.565 1,0.5 -8.932,7.957 -12.432,17.957 -10.5,30 -0.5,1.167 -1.333,2 -2.5,2.5 -21.333,0.667 -42.667,0.667 -64,0 -1.201,-0.903 -2.035,-2.069 -2.5,-3.5 -0.078,-6.774 -0.745,-13.441 -2,-20 -5.977,-5.645 -11.643,-11.645 -17,-18 -10.161,-15.307 -13.661,-31.974 -10.5,-50 1.511,-1.002 3.178,-1.669 5,-2 -0.392,-3.222 0.108,-6.222 1.5,-9 -1.289,3.437 -0.289,6.103 3,8 0.483,0.948 0.649,1.948 0.5,3 z"
           id="path32"
           sodipodi:insensitive="true" />
        <g
           id="g52"
           style="fill:url(#linearGradient16)">
          <path
             style="clip-rule:evenodd;opacity:1;fill:url(#linearGradient2);fill-rule:evenodd;image-rendering:optimizeQuality;shape-rendering:geometricPrecision;text-rendering:geometricPrecision"
             fill="#3e4a53"
             d="m 309.5,156.5 c 13.198,27.376 10.031,52.71 -9.5,76 -0.816,1.323 -1.983,1.989 -3.5,2 -0.438,0.065 -0.772,-0.101 -1,-0.5 2.31,-1.637 3.81,-3.804 4.5,-6.5 1.41,-1.287 2.91,-2.454 4.5,-3.5 -2.856,-1.424 -5.69,-1.924 -8.5,-1.5 -0.915,0.828 -1.581,1.828 -2,3 -0.671,-0.752 -1.504,-1.086 -2.5,-1 9.456,-9.684 14.456,-21.35 15,-35 0.126,-9.034 -1.54,-17.701 -5,-26 -0.352,-2.573 0.148,-4.906 1.5,-7 1.995,-0.666 4.162,-0.666 6.5,0 z"
             id="path28"
             sodipodi:insensitive="true" />
        </g>
        <path
           style="fill:none;fill-rule:evenodd;stroke:#000000;stroke-width:0.507864px;stroke-linecap:butt;stroke-linejoin:miter;stroke-opacity:1"
           d="m 304.49149,195.25711 v 0"
           id="path55"
           inkscape:connector-type="polyline"
           inkscape:connector-curvature="0"
           inkscape:connection-start="#g52"
           inkscape:connection-end="#g52" />
      </g>
      <rect
         style="fill:#f4ad1c;fill-opacity:1;fill-rule:evenodd;stroke-width:0.390933"
         id="rect42"
         width="58.222237"
         height="25.382654"
         x="-203.54651"
         y="12.923656"
         ry="12.691327"
         transform="matrix(-0.59777559,-0.80166349,0.85659876,-0.51598311,0,0)"
         inkscape:transform-center-x="-8.713061"
         inkscape:transform-center-y="-25.871681" />
      <rect
         style="fill:#f4ad1c;fill-opacity:1;fill-rule:evenodd;stroke-width:0.381205"
         id="rect52"
         width="54.883801"
         height="25.602966"
         x="-167.62993"
         y="-141.55054"
         ry="12.801483"
         transform="matrix(-0.93282644,-0.360326,0.29838999,-0.95444403,0,0)"
         inkscape:transform-center-x="14.452378"
         inkscape:transform-center-y="-16.024757" />
      <rect
         style="fill:#f4ad1c;fill-opacity:1;fill-rule:evenodd;stroke-width:0.381346"
         id="rect105"
         width="56.220161"
         height="25.013042"
         x="-205.30746"
         y="92.610641"
         ry="12.506521"
         transform="matrix(-0.49361167,-0.86968242,0.82962255,-0.55832466,0,0)"
         inkscape:transform-center-x="1.5006944"
         inkscape:transform-center-y="-21.908585" />
      <rect
         style="fill:#f4ad1c;fill-opacity:1;fill-rule:evenodd;stroke-width:0.381346"
         id="rect106"
         width="56.220161"
         height="25.013042"
         x="-205.30746"
         y="92.610641"
         ry="12.506521"
         transform="matrix(-0.49361167,-0.86968242,0.82962255,-0.55832466,0,0)"
         inkscape:transform-center-x="1.5006944"
         inkscape:transform-center-y="-21.908585" />
      <rect
         style="fill:#f4ad1c;fill-opacity:1;fill-rule:evenodd;stroke-width:0.381346"
         id="rect107"
         width="56.220161"
         height="25.013042"
         x="-205.30746"
         y="92.610641"
         ry="12.506521"
         transform="matrix(-0.49361167,-0.86968242,0.82962255,-0.55832466,0,0)"
         inkscape:transform-center-x="1.5006944"
         inkscape:transform-center-y="-21.908585" />
      <rect
         style="fill:#f4ad1c;fill-opacity:1;fill-rule:evenodd;stroke-width:0.381346"
         id="rect108"
         width="56.220161"
         height="25.013042"
         x="-205.30746"
         y="92.610641"
         ry="12.506521"
         transform="matrix(-0.49361167,-0.86968242,0.82962255,-0.55832466,0,0)"
         inkscape:transform-center-x="1.5006944"
         inkscape:transform-center-y="-21.908585" />
      <rect
         style="fill:#f4ad1c;fill-opacity:1;fill-rule:evenodd;stroke-width:0.381346"
         id="rect109"
         width="56.220161"
         height="25.013042"
         x="-205.30746"
         y="92.610641"
         ry="12.506521"
         transform="matrix(-0.49361167,-0.86968242,0.82962255,-0.55832466,0,0)"
         inkscape:transform-center-x="1.5006944"
         inkscape:transform-center-y="-21.908585" />
      <rect
         style="fill:#f4ad1c;fill-opacity:1;fill-rule:evenodd;stroke-width:0.381346"
         id="rect110"
         width="56.220161"
         height="25.013042"
         x="-205.30746"
         y="92.610641"
         ry="12.506521"
         transform="matrix(-0.49361167,-0.86968242,0.82962255,-0.55832466,0,0)"
         inkscape:transform-center-x="1.5006944"
         inkscape:transform-center-y="-21.908585" />
      <rect
         style="fill:#f4ad1c;fill-opacity:1;fill-rule:evenodd;stroke-width:0.381346"
         id="rect111"
         width="56.220161"
         height="25.013042"
         x="-205.30746"
         y="92.610641"
         ry="12.506521"
         transform="matrix(-0.49361167,-0.86968242,0.82962255,-0.55832466,0,0)"
         inkscape:transform-center-x="1.5006944"
         inkscape:transform-center-y="-21.908585" />
      <rect
         style="fill:#f4ad1c;fill-opacity:1;fill-rule:evenodd;stroke-width:0.381346"
         id="rect112"
         width="56.220161"
         height="25.013042"
         x="-205.30746"
         y="92.610641"
         ry="12.506521"
         transform="matrix(-0.49361167,-0.86968242,0.82962255,-0.55832466,0,0)"
         inkscape:transform-center-x="1.5006944"
         inkscape:transform-center-y="-21.908585" />
      <rect
         style="fill:#f4ad1c;fill-opacity:1;fill-rule:evenodd;stroke-width:0.381346"
         id="rect113"
         width="56.220161"
         height="25.013042"
         x="-205.30746"
         y="92.610641"
         ry="12.506521"
         transform="matrix(-0.49361167,-0.86968242,0.82962255,-0.55832466,0,0)"
         inkscape:transform-center-x="1.5006944"
         inkscape:transform-center-y="-21.908585" />
      <rect
         style="fill:#f4ad1c;fill-opacity:1;fill-rule:evenodd;stroke-width:0.381346"
         id="rect114"
         width="56.220161"
         height="25.013042"
         x="-205.30746"
         y="92.610641"
         ry="12.506521"
         transform="matrix(-0.49361167,-0.86968242,0.82962255,-0.55832466,0,0)"
         inkscape:transform-center-x="1.5006944"
         inkscape:transform-center-y="-21.908585" />
      <rect
         style="fill:#f4ad1c;fill-opacity:1;fill-rule:evenodd;stroke-width:0.381346"
         id="rect115"
         width="56.220161"
         height="25.013042"
         x="-205.30746"
         y="92.610641"
         ry="12.506521"
         transform="matrix(-0.49361167,-0.86968242,0.82962255,-0.55832466,0,0)"
         inkscape:transform-center-x="1.5006944"
         inkscape:transform-center-y="-21.908585" />
      <rect
         style="fill:#f4ad1c;fill-opacity:1;fill-rule:evenodd;stroke-width:0.381346"
         id="rect116"
         width="56.220161"
         height="25.013042"
         x="-205.30746"
         y="92.610641"
         ry="12.506521"
         transform="matrix(-0.49361167,-0.86968242,0.82962255,-0.55832466,0,0)"
         inkscape:transform-center-x="1.5006944"
         inkscape:transform-center-y="-21.908585" />
      <rect
         style="fill:#f4ad1c;fill-opacity:1;fill-rule:evenodd;stroke-width:0.381346"
         id="rect117"
         width="56.220161"
         height="25.013042"
         x="-205.30746"
         y="92.610641"
         ry="12.506521"
         transform="matrix(-0.49361167,-0.86968242,0.82962255,-0.55832466,0,0)"
         inkscape:transform-center-x="1.5006944"
         inkscape:transform-center-y="-21.908585" />
      <rect
         style="fill:#f4ad1c;fill-opacity:1;fill-rule:evenodd;stroke-width:0.381033"
         id="rect118"
         width="56.749615"
         height="24.739103"
         x="-140.93019"
         y="222.41071"
         ry="12.369552"
         transform="matrix(-0.08711725,-0.99619806,0.99056893,-0.13701528,0,0)"
         inkscape:transform-center-x="-7.6665442"
         inkscape:transform-center-y="-20.467745" />
      <rect
         style="fill:#f4ad1c;fill-opacity:1;fill-rule:evenodd;stroke-width:0.38084"
         id="rect119"
         width="56.599697"
         height="24.779482"
         x="-36.527233"
         y="297.53802"
         ry="12.389742"
         transform="matrix(0.27158968,-0.96241314,0.96821232,0.25012979,0,0)"
         inkscape:transform-center-x="-14.361361"
         inkscape:transform-center-y="-16.112938" />
      <rect
         style="fill:#f4ad1c;fill-opacity:1;fill-rule:evenodd;stroke-width:0.380794"
         id="rect120"
         width="55.86116"
         height="25.101065"
         x="110.15498"
         y="333.04047"
         ry="12.550534"
         transform="matrix(0.63839747,-0.76970687,0.77212254,0.63547367,0,0)"
         inkscape:transform-center-x="-19.485376"
         inkscape:transform-center-y="-8.5020427" />
      <rect
         style="fill:#f4ad1c;fill-opacity:1;fill-rule:evenodd;stroke-width:0.380804"
         id="rect121"
         width="55.036682"
         height="25.478273"
         x="244.62965"
         y="302.52295"
         ry="12.739139"
         transform="matrix(0.89228469,-0.45147317,0.4606898,0.88756121,0,0)"
         inkscape:transform-center-x="-21.132013"
         inkscape:transform-center-y="0.19408248" />
      <rect
         style="fill:#f4ad1c;fill-opacity:1;fill-rule:evenodd;stroke-width:0.380849"
         id="rect122"
         width="57.944279"
         height="24.205584"
         x="341.68518"
         y="232.61885"
         ry="12.102794"
         transform="matrix(0.99701127,-0.0772562,0.15725769,0.9875576,0,0)"
         inkscape:transform-center-x="-21.046334"
         inkscape:transform-center-y="7.5957738" />
      <rect
         style="fill:#f4ad1c;fill-opacity:1;fill-rule:evenodd;stroke-width:0.381101"
         id="rect123"
         width="54.725559"
         height="25.663208"
         x="411.44974"
         y="152.05884"
         ry="12.831606"
         transform="matrix(0.97334728,0.22933617,-0.17366026,0.98480562,0,0)"
         inkscape:transform-center-x="-16.368057"
         inkscape:transform-center-y="13.893011" />
      <rect
         style="fill:#f4ad1c;fill-opacity:1;fill-rule:evenodd;stroke-width:0.381343"
         id="rect124"
         width="55.249477"
         height="25.452076"
         x="454.50897"
         y="33.993713"
         ry="12.72604"
         transform="matrix(0.83318901,0.55298831,-0.48821122,0.8727255,0,0)"
         inkscape:transform-center-x="-10.875988"
         inkscape:transform-center-y="18.831979" />
      <rect
         style="fill:#f4ad1c;fill-opacity:1;fill-rule:evenodd;stroke-width:0.381406"
         id="rect125"
         width="55.718025"
         height="25.246429"
         x="463.95816"
         y="-29.309593"
         ry="12.623216"
         transform="matrix(0.688318,0.72540908,-0.66796508,0.74419262,0,0)"
         inkscape:transform-center-x="-6.5785612"
         inkscape:transform-center-y="20.872737" />
      <rect
         style="fill:#f4ad1c;fill-opacity:1;fill-rule:evenodd;stroke-width:0.38096"
         id="rect126"
         width="54.619579"
         height="25.693832"
         x="-104.61392"
         y="-232.08023"
         ry="12.846916"
         transform="matrix(-0.99975581,-0.0220981,-0.01963035,-0.99980731,0,0)"
         inkscape:transform-center-x="18.713843"
         inkscape:transform-center-y="-10.203879" />
      <rect
         style="fill:#f4ad1c;fill-opacity:1;fill-rule:evenodd;stroke-width:0.380873"
         id="rect127"
         width="54.668118"
         height="25.659239"
         x="-64.535637"
         y="-289.45142"
         ry="12.829619"
         transform="matrix(-0.98772926,0.15617588,-0.18445857,-0.98284029,0,0)"
         inkscape:transform-center-x="20.119585"
         inkscape:transform-center-y="-6.7194329" />
      <rect
         style="fill:#f4ad1c;fill-opacity:1;fill-rule:evenodd;stroke-width:0.380799"
         id="rect128"
         width="55.158054"
         height="25.421585"
         x="40.573742"
         y="-330.63736"
         ry="12.710793"
         transform="matrix(-0.85899287,0.51198755,-0.51850464,-0.85507482,0,0)"
         inkscape:transform-center-x="21.096288"
         inkscape:transform-center-y="1.2907344" />
      <rect
         style="fill:#f4ad1c;fill-opacity:1;fill-rule:evenodd;stroke-width:0.380795"
         id="rect129"
         width="55.79343"
         height="25.131502"
         x="140.19908"
         y="-335.79474"
         ry="12.565751"
         transform="matrix(-0.66244115,0.74911396,-0.7513662,-0.65988547,0,0)"
         inkscape:transform-center-x="19.735761"
         inkscape:transform-center-y="7.8533716" />
      <path
         style="fill:#fcfcfc;fill-opacity:1;fill-rule:evenodd;stroke-width:0.781352"
         d="m 200.95456,289.64164 c -6.31406,-1.73303 -11.6245,-5.98393 -14.3099,-11.45481 -1.48004,-3.01522 -1.57269,-5.03547 -1.97509,-43.06918 -0.41816,-39.52242 -0.40661,-39.9373 1.20292,-43.21392 4.7218,-9.6124 16.55103,-12.61214 27.34488,-6.93431 5.20426,2.73756 10.60172,8.93584 15.85588,18.20841 5.38292,9.49978 12.92,21.10912 13.7046,21.10912 0.95334,0 8.20029,-11.57477 11.41303,-18.22879 1.35043,-2.79696 3.66932,-6.38152 5.15306,-7.96571 1.48374,-1.58419 3.32877,-4.13493 4.10006,-5.66834 2.54156,-5.05289 11.54707,-9.83608 18.39427,-9.76995 5.06547,0.049 9.58147,2.06957 15.22428,6.81196 l 3.99353,3.35628 -0.3867,41.1857 c -0.43013,45.8126 -0.13819,43.38975 -5.8777,48.77902 -5.1351,4.82173 -10.78984,7.13069 -17.57779,7.1774 l -5.74819,0.0396 -0.23106,-2.86861 c -0.1956,-2.4281 0.17969,-3.24344 2.44393,-5.30966 1.69964,-1.551 3.00365,-3.69999 3.57631,-5.89368 1.67746,-6.42578 0.65326,-60.74798 -1.18129,-62.65468 -0.33835,-0.35167 -6.00315,8.70583 -14.99514,23.97582 -7.03105,11.94002 -9.35814,14.25462 -15.91239,15.82703 -3.01129,0.72243 -4.47772,0.6407 -8.09055,-0.45088 l -4.41264,-1.33325 -6.34919,-10.11917 c -3.49205,-5.56554 -8.70423,-13.88296 -11.58263,-18.48316 l -5.23345,-8.36399 -0.60022,2.78798 c -0.96414,4.47841 -2.22637,32.90666 -1.69546,38.18587 0.43254,4.30104 0.33527,4.82898 -0.88967,4.82898 -1.26776,0 -1.33632,0.6619 -0.87691,8.46571 l 0.49838,8.46573 3.50185,3.38934 c 3.15037,3.04916 3.47743,3.69855 3.25861,6.46998 l -0.24324,3.08064 -4.59855,0.13433 c -2.52921,0.0739 -5.63322,-0.14965 -6.89783,-0.49675 z"
         id="path1" />
      <rect
         style="fill:#313f46;fill-opacity:1;fill-rule:evenodd"
         id="rect2"
         width="121.60414"
         height="18.758085"
         x="181.11255"
         y="369.01682"
         ry="9.3790283" />
      <rect
         style="fill:#313f46;fill-opacity:1;fill-rule:evenodd"
         id="rect3"
         width="112.5485"
         height="19.404917"
         x="185.96378"
         y="394.89005"
         ry="9.0556145" />
      <rect
         style="fill:#4d4d4d;fill-rule:evenodd"
         id="rect4"
         width="0.97024578"
         height="2.2639067"
         x="242.56145"
         y="404.5925"
         ry="0.48512289" />
      <path
         style="fill:#313f46;fill-opacity:1;fill-rule:evenodd;stroke-width:1.21884"
         id="path5"
         sodipodi:type="arc"
         sodipodi:cx="238.03316"
         sodipodi:cy="421.73355"
         sodipodi:rx="32.665421"
         sodipodi:ry="28.137129"
         sodipodi:start="0"
         sodipodi:end="3.1226391"
         sodipodi:arc-type="slice"
         d="m 270.69858,421.73355 a 32.665421,28.137129 0 0 1 -32.35586,28.13587 32.665421,28.137129 0 0 1 -32.96912,-27.6026 l 32.65956,-0.53327 z" />
      <rect
         style="fill:#f4ad1c;fill-opacity:1;fill-rule:evenodd;stroke-width:0.390933"
         id="rect7"
         width="58.222237"
         height="25.382654"
         x="-235.31369"
         y="163.55458"
         ry="12.691327"
         transform="matrix(0.01557997,-0.99987862,0.99349206,0.11390141,0,0)"
         inkscape:transform-center-x="-22.689657"
         inkscape:transform-center-y="-15.180268" />
      <rect
         style="fill:#f4ad1c;fill-opacity:1;fill-rule:evenodd;stroke-width:0.390933"
         id="rect8"
         width="58.222237"
         height="25.382654"
         x="-212.01334"
         y="311.30707"
         ry="12.691327"
         transform="matrix(0.01557997,-0.99987862,0.99349206,0.11390141,0,0)"
         inkscape:transform-center-x="-22.689657"
         inkscape:transform-center-y="-15.180268" />
      <rect
         style="fill:#f4ad1c;fill-opacity:1;fill-rule:evenodd;stroke-width:0.268453"
         id="rect9"
         width="27.594036"
         height="25.254633"
         x="-241.83527"
         y="323.4595"
         ry="12.627316"
         transform="matrix(0.03287307,-0.99945953,0.99852827,0.05423371,0,0)"
         inkscape:transform-center-x="-22.689671"
         inkscape:transform-center-y="-7.1915698" />
      <rect
         style="fill:#f4ad1c;fill-opacity:1;fill-rule:evenodd;stroke-width:0.390933"
         id="rect10"
         width="58.222237"
         height="25.382654"
         x="-212.20869"
         y="306.75266"
         ry="12.691327"
         transform="matrix(0.01557997,-0.99987862,0.99349206,0.11390141,0,0)"
         inkscape:transform-center-x="-22.689657"
         inkscape:transform-center-y="-15.180268" />
      <rect
         style="fill:#f4ad1c;fill-opacity:1;fill-rule:evenodd;stroke-width:0.390933"
         id="rect11"
         width="58.222237"
         height="25.382654"
         x="-303.81924"
         y="78.187729"
         ry="12.691327"
         transform="matrix(-0.56141858,-0.82753198,0.87876383,-0.47725688,0,0)"
         inkscape:transform-center-x="-9.858503"
         inkscape:transform-center-y="-25.457241" />
      <rect
         style="fill:#f4ad1c;fill-opacity:1;fill-rule:evenodd;stroke-width:0.181105"
         id="rect12"
         width="16.310638"
         height="19.445089"
         x="-200.42976"
         y="110.22929"
         ry="9.7225447"
         transform="matrix(-0.31838895,-0.94796017,0.99998003,-0.00632053,0,0)"
         inkscape:transform-center-x="-14.45992"
         inkscape:transform-center-y="-2.14281" />
      <rect
         style="fill:#f4ad1c;fill-opacity:1;fill-rule:evenodd;stroke-width:0.181105"
         id="rect13"
         width="16.310638"
         height="19.445089"
         x="-193.37291"
         y="126.38329"
         ry="9.7225447"
         transform="matrix(-0.31838895,-0.94796017,0.99998003,-0.00632053,0,0)"
         inkscape:transform-center-x="-14.45992"
         inkscape:transform-center-y="-2.14281" />
      <rect
         style="fill:#f4ad1c;fill-opacity:1;fill-rule:evenodd;stroke-width:0.181105"
         id="rect14"
         width="16.310638"
         height="19.445089"
         x="-218.02405"
         y="241.75816"
         ry="9.7225447"
         transform="matrix(-0.31838895,-0.94796017,0.99998003,-0.00632053,0,0)"
         inkscape:transform-center-x="-14.45992"
         inkscape:transform-center-y="-2.14281" />
      <rect
         style="fill:#f4ad1c;fill-opacity:1;fill-rule:evenodd;stroke-width:0.181105"
         id="rect15"
         width="16.310638"
         height="19.445089"
         x="-290.68433"
         y="138.09146"
         ry="9.7225447"
         transform="matrix(-0.31838895,-0.94796017,0.99998003,-0.00632053,0,0)"
         inkscape:transform-center-x="-14.45992"
         inkscape:transform-center-y="-2.14281" />
      <rect
         style="fill:#f4ad1c;fill-opacity:1;fill-rule:evenodd;stroke-width:0.144009"
         id="rect16"
         width="11.833828"
         height="16.946487"
         x="-284.76779"
         y="144.63928"
         ry="8.4732437"
         transform="matrix(-0.38245146,-0.92397558,0.99998685,-0.00512872,0,0)"
         inkscape:transform-center-x="-12.60198"
         inkscape:transform-center-y="-1.515346" />
      <rect
         style="fill:#f4ad1c;fill-opacity:1;fill-rule:evenodd;stroke-width:0.144009"
         id="rect17"
         width="11.833828"
         height="16.946487"
         x="-310.19766"
         y="100.21661"
         ry="8.4732437"
         transform="matrix(-0.46126097,-0.88726451,0.99576211,-0.09196646,0,0)"
         inkscape:transform-center-x="-12.42274"
         inkscape:transform-center-y="-2.604197" />
      <rect
         style="fill:#f4ad1c;fill-opacity:1;fill-rule:evenodd;stroke-width:0.144009"
         id="rect18"
         width="11.833828"
         height="16.946487"
         x="-275.83981"
         y="21.942406"
         ry="8.4732437"
         transform="matrix(-0.46126097,-0.88726451,0.99576211,-0.09196646,0,0)"
         inkscape:transform-center-x="-12.42274"
         inkscape:transform-center-y="-2.604197" />
      <rect
         style="fill:#f4ad1c;fill-opacity:1;fill-rule:evenodd;stroke-width:0.108025"
         id="rect19"
         width="20.153215"
         height="5.5992775"
         x="-316.62515"
         y="145.48367"
         ry="2.7996387"
         transform="matrix(-0.07605897,-0.99710332,0.84630363,-0.53270082,0,0)"
         inkscape:transform-center-x="-3.4885114"
         inkscape:transform-center-y="-4.9840332" />
      <rect
         style="fill:#f4ad1c;fill-opacity:1;fill-rule:evenodd;stroke-width:0.108025"
         id="rect20"
         width="20.153215"
         height="5.5992775"
         x="-336.48782"
         y="158.98459"
         ry="2.7996387"
         transform="matrix(-0.07605897,-0.99710332,0.84630363,-0.53270082,0,0)"
         inkscape:transform-center-x="-3.4885114"
         inkscape:transform-center-y="-4.9840332" />
      <rect
         style="fill:#313f46;fill-opacity:1;fill-rule:evenodd;stroke-width:0.928477"
         id="rect21"
         width="14.553689"
         height="22.639063"
         x="186.70851"
         y="149.2388"
         ry="2.2525828"
         transform="rotate(17.522581)" />
      <rect
         style="fill:#313f46;fill-opacity:1;fill-rule:evenodd;stroke-width:0.99425"
         id="rect22"
         width="14.754901"
         height="25.606131"
         x="184.93907"
         y="140.06009"
         ry="2.5478055"
         transform="matrix(0.94059419,0.33953286,-0.26619431,0.96391939,0,0)" />
      <rect
         style="fill:#313f46;fill-opacity:1;fill-rule:evenodd;stroke-width:1.10506"
         id="rect23"
         width="18.592899"
         height="25.102575"
         x="186.99416"
         y="262.65704"
         ry="2.4977019"
         transform="matrix(0.97724618,-0.21210825,0.53162052,0.84698266,0,0)"
         inkscape:transform-center-x="-7.0775776"
         inkscape:transform-center-y="2.3087892" />
      <rect
         style="fill:#313f46;fill-opacity:1;fill-rule:evenodd;stroke-width:0.777985"
         id="rect24"
         width="14.004026"
         height="16.518978"
         x="238.96184"
         y="201.82912"
         ry="1.6436355"
         transform="matrix(0.99990917,0.01347807,0.4555822,0.89019372,0,0)"
         inkscape:transform-center-x="-5.0153182"
         inkscape:transform-center-y="2.3919091" />
      <rect
         style="fill:#313f46;fill-opacity:1;fill-rule:evenodd;stroke-width:0.777985"
         id="rect25"
         width="14.004026"
         height="16.518978"
         x="475.48355"
         y="-323.15399"
         ry="1.6436355"
         transform="matrix(0.12741326,0.99184972,-0.81719721,0.57635815,0,0)"
         inkscape:transform-center-x="1.6620979"
         inkscape:transform-center-y="5.3020921" />
      <rect
         style="fill:#313f46;fill-opacity:1;fill-rule:evenodd;stroke-width:0.777985"
         id="rect26"
         width="14.004026"
         height="16.518978"
         x="479.15341"
         y="-335.64194"
         ry="1.6436355"
         transform="matrix(0.12741326,0.99184972,-0.81719721,0.57635815,0,0)"
         inkscape:transform-center-x="1.6620979"
         inkscape:transform-center-y="5.3020921" />
      <path
         id="rect27"
         style="fill:#313f46;fill-opacity:1;fill-rule:evenodd;stroke-width:0.777985"
         inkscape:transform-center-x="1.6620979"
         inkscape:transform-center-y="5.3020921"
         transform="matrix(0.12741326,0.99184972,-0.81719721,0.57635815,0,0)"
         d="m 483.68155,-325.40184 c -0.12622,0.23293 -0.19899,0.50181 -0.19899,0.78636 l 9.7e-4,13.23135 c 0,0.91058 0.73418,1.64266 1.64476,1.64266 l 10.71615,1.8e-4 c 0.91057,0 1.64435,-0.73312 1.64435,-1.64369 l 5.9e-4,-2.00037 -0.002,-2.8e-4 c -0.25582,-0.23896 -0.22265,-0.66527 -0.17754,-1.1008 -0.0554,-0.50833 -0.0854,-1.02695 -0.0198,-1.59246 -10e-4,-0.13515 0.005,-0.27426 0.0139,-0.4137 -0.0563,-0.44231 -0.0256,-0.92772 -0.0108,-1.40463 0.0264,-0.61463 -0.0408,-1.18394 -0.031,-1.79018 -0.0889,-0.57522 -0.0855,-1.19658 -0.095,-1.81212 0.006,-0.0627 0.009,-0.12281 0.01,-0.18254 -0.0228,-0.0247 -0.0475,-0.0479 -0.0698,-0.073 -0.23554,-0.43274 -0.4571,-0.88326 -0.58613,-1.39395 -0.0259,-0.34636 -0.007,-0.71485 0.0161,-1.08496 -0.10971,-0.33004 -0.31791,-0.5878 -0.46546,-0.88996 -0.19322,-0.31799 -0.23193,-0.70982 -0.22312,-1.1342 -0.002,-1e-5 -0.003,-8.5e-4 -0.005,-8.5e-4 l -10.71615,-1.7e-4 c -0.62602,0 -1.16767,0.34488 -1.44536,0.85733 z m 12.92966,-0.66091 c 0.0208,0.10718 0.056,0.20717 0.10177,0.30267 0.01,-0.0743 0.02,-0.14856 0.0289,-0.22255 -0.043,-0.0281 -0.0849,-0.0559 -0.13067,-0.0801 z" />
      <rect
         style="fill:#313f46;fill-opacity:1;fill-rule:evenodd;stroke-width:0.777985"
         id="rect28"
         width="14.004026"
         height="16.518978"
         x="477.8317"
         y="-341.78442"
         ry="1.6436355"
         transform="matrix(0.12741326,0.99184972,-0.81719721,0.57635815,0,0)"
         inkscape:transform-center-x="1.6620979"
         inkscape:transform-center-y="5.3020921" />
      <rect
         style="fill:#f4ad1c;fill-opacity:1;fill-rule:evenodd;stroke-width:0.213589"
         id="rect35"
         width="23.718706"
         height="18.598938"
         x="-211.23816"
         y="316.81601"
         ry="9.299469"
         transform="matrix(0.02815005,-0.99960371,0.99799402,0.0633083,0,0)"
         inkscape:transform-center-x="-16.701015"
         inkscape:transform-center-y="-6.1824673" />
    </g>
  </g>
</svg>
